<svg id="b1ee84e8-bc4c-4ce9-a7c2-023956109a61" data-name="Layer 1" xmlns="http://www.w3.org/2000/svg" viewBox="0 0 425.2 68.03"><title>tcs_logo</title><path d="M78,51c4.69,0,7.43,3.5,7.43,8.2S82.74,67.41,78,67.41,70.61,64,70.61,59.22,73.35,51,78,51m0,14.39c3.56,0,5.08-3,5.08-6.19S81.44,53,78,53,73,56,73,59.22s1.53,6.19,5.08,6.19" style="fill:#1d428a"/><polygon points="94.62 53.29 89.82 53.29 89.82 51.29 101.62 51.29 101.62 53.29 96.83 53.29 96.83 67.14 94.62 67.14 94.62 53.29" style="fill:#1d428a"/><polygon points="109.86 53.29 105.07 53.29 105.07 51.29 116.86 51.29 116.86 53.29 112.07 53.29 112.07 67.14 109.86 67.14 109.86 53.29" style="fill:#1d428a"/><polygon points="122.13 51.29 124.34 51.29 124.34 57.92 131.72 57.92 131.72 51.29 133.93 51.29 133.93 67.14 131.72 67.14 131.72 59.92 124.34 59.92 124.34 67.14 122.13 67.14 122.13 51.29" style="fill:#1d428a"/><path d="M147.55,51c4.69,0,7.42,3.5,7.42,8.2s-2.71,8.19-7.42,8.19-7.42-3.38-7.42-8.19,2.74-8.2,7.42-8.2m0,14.39c3.56,0,5.08-3,5.08-6.19S151,53,147.55,53s-5.08,3-5.08,6.2,1.53,6.19,5.08,6.19" style="fill:#1d428a"/><polygon points="161.42 51.29 164.43 51.29 171.23 64.05 171.27 64.05 171.27 51.29 173.49 51.29 173.49 67.14 170.66 67.14 163.67 54.11 163.63 54.11 163.63 67.14 161.42 67.14 161.42 51.29" style="fill:#1d428a"/><path d="M78,51c4.69,0,7.43,3.5,7.43,8.2S82.74,67.41,78,67.41,70.61,64,70.61,59.22,73.35,51,78,51m0,14.39c3.56,0,5.08-3,5.08-6.19S81.44,53,78,53,73,56,73,59.22s1.53,6.19,5.08,6.19" style="fill:#1d428a"/><polygon points="94.62 53.29 89.82 53.29 89.82 51.29 101.62 51.29 101.62 53.29 96.83 53.29 96.83 67.14 94.62 67.14 94.62 53.29" style="fill:#1d428a"/><polygon points="109.86 53.29 105.07 53.29 105.07 51.29 116.86 51.29 116.86 53.29 112.07 53.29 112.07 67.14 109.86 67.14 109.86 53.29" style="fill:#1d428a"/><polygon points="122.13 51.29 124.34 51.29 124.34 57.92 131.72 57.92 131.72 51.29 133.93 51.29 133.93 67.14 131.72 67.14 131.72 59.92 124.34 59.92 124.34 67.14 122.13 67.14 122.13 51.29" style="fill:#1d428a"/><path d="M147.55,51c4.69,0,7.42,3.5,7.42,8.2s-2.71,8.19-7.42,8.19-7.42-3.38-7.42-8.19,2.74-8.2,7.42-8.2m0,14.39c3.56,0,5.08-3,5.08-6.19S151,53,147.55,53s-5.08,3-5.08,6.2,1.53,6.19,5.08,6.19" style="fill:#1d428a"/><polygon points="161.42 51.29 164.43 51.29 171.23 64.05 171.27 64.05 171.27 51.29 173.49 51.29 173.49 67.14 170.66 67.14 163.67 54.11 163.63 54.11 163.63 67.14 161.42 67.14 161.42 51.29" style="fill:#1d428a"/><path d="M193.67,51.29H196l6.51,15.85h-2.4l-1.57-4H191l-1.56,4h-2.32Zm1.08,2.14-3.07,7.85h6.14Z" style="fill:#1d428a"/><path d="M216.15,51.29h4c3.16,0,5.78,1.13,5.78,4.74s-2.67,4.78-5.45,4.78h-2.16v6.33h-2.21Zm2.21,7.52h2.18a2.8,2.8,0,0,0,3.09-2.8c0-2-2-2.72-3.4-2.72h-1.87Z" style="fill:#1d428a"/><path d="M232.53,51.29h8.63v2h-6.42v4.63h5.85v2h-5.85v5.22h6.42v2h-8.63Zm4.57-4.43h2.41l-2.89,3.27h-1.48Z" style="fill:#1d428a"/><polygon points="248.41 51.29 251.41 51.29 258.22 64.05 258.26 64.05 258.26 51.29 260.47 51.29 260.47 67.14 257.64 67.14 250.66 54.11 250.62 54.11 250.62 67.14 248.41 67.14 248.41 51.29" style="fill:#1d428a"/><polygon points="267.04 65.1 275.04 53.29 267.31 53.29 267.31 51.29 277.58 51.29 277.58 53.33 269.61 65.14 277.71 65.14 277.71 67.14 267.04 67.14 267.04 65.1" style="fill:#1d428a"/><path d="M295.87,60.58c0,4.45-2.19,6.83-6,6.83s-6-2.38-6-6.83V51.29h2.21v9c0,3,.92,5.13,3.77,5.13s3.78-2.09,3.78-5.13v-9h2.21ZM287,47.7h2.08V50H287Zm3.63,0h2.07V50h-2.07Z" style="fill:#1d428a"/><path d="M313.61,54.11A7,7,0,0,0,309.37,53c-3.56,0-5.92,2.65-5.92,6.2a5.83,5.83,0,0,0,5.8,6.19,8.87,8.87,0,0,0,2.48-.27V60.33h-3.24V58.47h5.45v8.24a13.88,13.88,0,0,1-4.71.7c-4.88,0-8.12-3.22-8.12-8.26A7.78,7.78,0,0,1,309.25,51a11.49,11.49,0,0,1,4.54.79Z" style="fill:#1d428a"/><polygon points="325.09 60.51 319.06 51.29 321.64 51.29 326.23 58.4 330.72 51.29 333.3 51.29 327.3 60.51 327.3 67.14 325.09 67.14 325.09 60.51" style="fill:#1d428a"/><polygon points="338.5 51.29 347.14 51.29 347.14 53.29 340.71 53.29 340.71 57.92 346.57 57.92 346.57 59.92 340.71 59.92 340.71 65.14 347.14 65.14 347.14 67.14 338.5 67.14 338.5 51.29" style="fill:#1d428a"/><polygon points="353.75 51.29 355.96 51.29 355.96 58.26 362.54 51.29 365.48 51.29 358.24 58.78 366.05 67.14 362.83 67.14 355.96 59.37 355.96 67.14 353.75 67.14 353.75 51.29" style="fill:#1d428a"/><path d="M371.61,51.29h4.18c3.2,0,5.41,1.07,5.41,4,0,2.18-1.24,3.27-3.18,3.76v.05a3.66,3.66,0,0,1,3.58,3.82c0,3.4-2.74,4.22-5.88,4.22h-4.11Zm2.21,6.77H375c2.14,0,3.95-.21,3.95-2.55,0-1.88-1.57-2.36-2.85-2.36h-2.32Zm0,7.22h1.66c2,0,3.77-.43,3.77-2.57,0-2.45-2.09-2.79-4-2.79h-1.43Z" style="fill:#1d428a"/><polygon points="388.54 51.29 397.18 51.29 397.18 53.29 390.75 53.29 390.75 57.92 396.6 57.92 396.6 59.92 390.75 59.92 390.75 65.14 397.18 65.14 397.18 67.14 388.54 67.14 388.54 51.29" style="fill:#1d428a"/><polygon points="403.74 51.29 406.74 51.29 413.54 64.05 413.59 64.05 413.59 51.29 415.8 51.29 415.8 67.14 412.97 67.14 405.99 54.11 405.95 54.11 405.95 67.14 403.74 67.14 403.74 51.29" style="fill:#1d428a"/><path d="M29.08,26.51,21.37,34.2a2.92,2.92,0,0,0-.85,2.08,2.88,2.88,0,0,0,.85,2L29.08,46a2.9,2.9,0,0,0,4.12,0l7.7-7.71a2.92,2.92,0,0,0,0-4.13l-7.7-7.69a2.91,2.91,0,0,0-4.12,0" style="fill:#ff8200"/><path d="M5.6,41.84A3,3,0,0,0,7.66,41l2.65-2.66a2.91,2.91,0,0,0,0-4.13L7.62,31.53a2.92,2.92,0,0,0-4.13,0L.84,34.21a2.93,2.93,0,0,0,0,4.13L3.53,41a2.87,2.87,0,0,0,2.07.85M58.74,31.53a2.92,2.92,0,0,0-4.13,0L52,34.22a2.92,2.92,0,0,0,0,4.12L54.64,41a2.93,2.93,0,0,0,4.14,0l2.65-2.68a2.93,2.93,0,0,0,0-4.13ZM26.44,12.79a2.91,2.91,0,0,1,0-4.12L29.08,6a2.92,2.92,0,0,1,4.13,0l2.67,2.64a2.9,2.9,0,0,1,.86,2.07,3,3,0,0,1-.85,2.06l-2.65,2.67a2.92,2.92,0,0,1-4.13,0ZM33.2,57.1a2.9,2.9,0,0,0-4.12,0l-2.65,2.66a3,3,0,0,0-.85,2.06,2.89,2.89,0,0,0,.86,2.07l2.67,2.66a2.93,2.93,0,0,0,4.13,0l2.65-2.67a2.93,2.93,0,0,0,.85-2.07,2.89,2.89,0,0,0-.87-2.06ZM13.83,30.74a2.91,2.91,0,0,0,4.13,0L25.64,23a3,3,0,0,0,.85-2.07,2.92,2.92,0,0,0-.86-2.06l-7.74-7.68a2.92,2.92,0,0,0-4.13,0L6.07,18.93a2.93,2.93,0,0,0,0,4.13Zm34.66,11a2.9,2.9,0,0,0-4.12,0l-7.69,7.74a2.9,2.9,0,0,0,0,4.12l7.74,7.68a2.93,2.93,0,0,0,4.13,0l7.68-7.74a2.89,2.89,0,0,0,.84-2.07,2.84,2.84,0,0,0-.86-2.06ZM36.7,23.06l7.73,7.69a3,3,0,0,0,2.07.84,2.88,2.88,0,0,0,2.07-.86L56.24,23a2.91,2.91,0,0,0,0-4.13l-7.74-7.69a2.93,2.93,0,0,0-4.13,0l-7.68,7.74a2.92,2.92,0,0,0,0,4.13M25.63,49.46l-7.74-7.69a2.9,2.9,0,0,0-2.07-.84,3,3,0,0,0-2.06.86L6.08,49.53a2.92,2.92,0,0,0,0,4.13l7.74,7.68a2.87,2.87,0,0,0,2.07.85A2.92,2.92,0,0,0,18,61.33l7.68-7.74a2.92,2.92,0,0,0,0-4.13" style="fill:#1d428a"/><path d="M239.12,36.53a2.89,2.89,0,0,1-2.24,4.66,2.93,2.93,0,0,1-2.27-1.13l-9.89-12.64a2.84,2.84,0,0,1,0-3.51l9.77-12.67A2.86,2.86,0,1,1,239,14.73l-8.42,10.91Zm-16.33,1.79a2.82,2.82,0,0,1-2.8,2.87,2.9,2.9,0,0,1-2.92-2.85V13a2.83,2.83,0,0,1,2.81-2.88A2.91,2.91,0,0,1,222.79,13ZM211,22.79a2.84,2.84,0,0,1,2.87,2.84A2.87,2.87,0,0,1,211,28.51h-9.38v7H211a2.86,2.86,0,0,1,0,5.72H198.81a2.87,2.87,0,0,1-2.92-2.82V13a2.85,2.85,0,0,1,2.8-2.9h12.23a2.85,2.85,0,1,1,0,5.7l-9.33,0v6.93ZM192.31,36.52a2.85,2.85,0,0,1-2.18,4.67,2.87,2.87,0,0,1-2.21-1l-9.35-11.27a2.84,2.84,0,0,1,.37-4,3,3,0,0,1,1.11-.57,2.89,2.89,0,0,1,.84-.13h2.22a4.16,4.16,0,1,0,0-8.32h-6.92V38.33a2.83,2.83,0,0,1-2.8,2.86,2.9,2.9,0,0,1-2.91-2.84V13a2.86,2.86,0,0,1,2.79-2.91h9.82a9.88,9.88,0,0,1,3.28,19.2ZM80.44,38.32a2.83,2.83,0,0,1-2.81,2.86,2.89,2.89,0,0,1-2.91-2.85V15.85H69.09A2.84,2.84,0,0,1,66.22,13a2.9,2.9,0,0,1,2.85-2.9H86a2.84,2.84,0,0,1,2.87,2.82A2.89,2.89,0,0,1,86,15.85H80.44ZM209.86.69a2.4,2.4,0,0,0-3.38,0l-1.67,1.7h0l-1.42,1.43a2.38,2.38,0,0,0,0,3.37,2.42,2.42,0,0,0,1.69.7,2.39,2.39,0,0,0,1.68-.71l1.69-1.7h0l1.42-1.43a2.38,2.38,0,0,0,0-3.37M137.27,36.53a2.85,2.85,0,0,1-.5,4,2.84,2.84,0,0,1-4-.48l-9.89-12.64a2.84,2.84,0,0,1,0-3.51l9.75-12.67a2.86,2.86,0,1,1,4.53,3.49l-8.4,10.91Zm-16.34,1.79a2.82,2.82,0,0,1-2.8,2.87,2.9,2.9,0,0,1-2.92-2.85V13A2.84,2.84,0,0,1,118,10.12,2.91,2.91,0,0,1,120.93,13ZM110.37,41a3.1,3.1,0,0,1-1.1.23,3,3,0,0,1-2.67-1.8l-8.08-19L92.23,35.46h5.2a2.87,2.87,0,0,1,0,5.73H88a2.84,2.84,0,0,1-2.65-3.94L95.85,11.87a2.87,2.87,0,0,1,5.28,0c2.68,6.34,10.75,25.36,10.75,25.36A2.85,2.85,0,0,1,110.37,41m32.16,0A2.86,2.86,0,0,1,141,37.19l10.76-25.36a2.88,2.88,0,0,1,5.27,0L167.6,37.23a2.86,2.86,0,0,1-.26,2.69A2.82,2.82,0,0,1,165,41.17h-9.5a2.87,2.87,0,0,1-2.85-2.88,2.84,2.84,0,0,1,2.87-2.84h5.2l-6.29-15.11-8.08,19a3,3,0,0,1-2.67,1.8,2.72,2.72,0,0,1-1.1-.23" style="fill:#1d428a"/><path d="M265.74,31A2.12,2.12,0,0,1,268,33c0,3.88-4.07,8.2-9.92,8.2-8.15,0-12.64-5.51-12.64-15.53,0-7.73,3.84-15.53,12.42-15.53,6.66,0,10.14,4.82,10.14,7.39S266.47,20,266,20c-1.12,0-1.61-.72-2.38-2-1-1.61-2.2-3.61-5.72-3.61-4.55,0-7.72,4.63-7.72,11.26,0,7.16,2.89,11.27,7.94,11.27,3.1,0,4.41-2.14,5.47-3.86.8-1.29,1.33-2.09,2.18-2.09m20.06-7.08-5.11-1.34c-1.77-.47-4.72-1.25-4.72-4.05,0-2.65,2-4.37,5.12-4.37a6.79,6.79,0,0,1,6.12,3.18c.71.94,1.12,1.43,1.9,1.43a2,2,0,0,0,2.09-2.09c0-3.67-5.21-6.53-9.7-6.53-4.83,0-10,2.31-10,8.77,0,2.8.69,6.23,6.06,7.8l6.9,2a3.9,3.9,0,0,1,3.12,3.92c0,2.32-2,4.79-5.63,4.79-4,0-5.39-2.17-6.44-3.76-.79-1.2-1.25-1.84-2.22-1.84a2,2,0,0,0-1.86,2.22c0,2.76,2.86,7.13,10.52,7.13,6.47,0,10.33-3.39,10.33-9.06,0-4.34-2.18-7.11-6.48-8.23m21.66,17.3c-11.2,0-12.88-10-12.88-15.92,0-9.34,4.94-15.15,12.88-15.15s12.87,5.81,12.87,15.15c0,7.34-3.37,15.92-12.87,15.92m0-26.8c-5.12,0-8.18,4.07-8.18,10.88,0,9.63,4.45,11.65,8.18,11.65,5.27,0,8.17-4.14,8.17-11.65,0-6.81-3.05-10.88-8.17-10.88m54,26.8c-11.19,0-12.86-10-12.86-15.91,0-9.33,4.93-15.13,12.86-15.13s12.87,5.8,12.87,15.13c0,7.34-3.37,15.91-12.87,15.91m0-26.78c-5.11,0-8.17,4.07-8.17,10.87,0,9.63,4.45,11.65,8.17,11.65,5.27,0,8.17-4.14,8.17-11.65,0-6.8-3-10.87-8.17-10.87m60.92-4.29H404.22a2.28,2.28,0,0,0-2.53,2.33,2.28,2.28,0,0,0,2.53,2.33h6.68V38.29c0,1.79.92,2.9,2.41,2.9s2.41-1.11,2.41-2.9V14.78h6.68a2.28,2.28,0,0,0,2.53-2.33,2.28,2.28,0,0,0-2.53-2.33M397.85,41.19a2.26,2.26,0,0,0,1.74-3.72l-6.89-8.31,1-.34a9.61,9.61,0,0,0-3.16-18.7H380.18a2.24,2.24,0,0,0-1.6.69,2.17,2.17,0,0,0-.61,1.61V38.91a2.32,2.32,0,0,0,2.32,2.26,2.24,2.24,0,0,0,2.23-2.28V14.68l8,0a5.08,5.08,0,1,1,0,10.16h-2.32a2.54,2.54,0,0,0-.68.1,2.49,2.49,0,0,0-.92.46,2.32,2.32,0,0,0-.81,1.54,2.27,2.27,0,0,0,.52,1.66l9.77,11.78a2.2,2.2,0,0,0,1.72.83Zm-71.8,0a2.17,2.17,0,0,0,1.58-.67,2.22,2.22,0,0,0,.62-1.61V14.67h8a5.08,5.08,0,1,1,0,10.15h-2.32a2.74,2.74,0,0,0-.69.1,2.69,2.69,0,0,0-.91.46,2.28,2.28,0,0,0-.81,1.54,2.12,2.12,0,0,0,.51,1.66,3.64,3.64,0,0,0,2.74.76,12.22,12.22,0,0,0,4.63-.52,9.49,9.49,0,0,0,6.47-9.13,9.63,9.63,0,0,0-9.64-9.57H325.91a2.25,2.25,0,0,0-2.22,2.3V38.92A2.32,2.32,0,0,0,326,41.18Z" style="fill:#ff8200"/></svg>